<svg width="24" height="22" viewBox="0 0 24 22" fill="none" xmlns="http://www.w3.org/2000/svg">
<path d="M22.4851 20.9141C22.5295 20.6896 22.4737 20.468 22.3304 20.2953C22.1915 20.1254 21.9823 20.0261 21.766 20.0261H21.0326V5.57617C21.0326 5.23363 20.9223 4.89109 20.7175 4.61044C20.5155 4.33411 20.2219 4.12399 19.8967 4.02035L8.79692 0.534548C8.72387 0.51296 8.65081 0.501445 8.57347 0.501445C8.49325 0.494249 8.4159 0.51296 8.33855 0.534548L3.1018 2.17813C2.76805 2.28176 2.48586 2.48757 2.28103 2.76823C2.0762 3.04888 1.9659 3.38423 1.9659 3.73396V20.0261H1.27692C0.905933 20.0261 0.580786 20.2765 0.514891 20.6119C0.470488 20.8364 0.52635 21.058 0.669592 21.2307C0.808536 21.4006 1.01767 21.4999 1.23397 21.4999H21.7245C22.0954 21.4999 22.4206 21.2495 22.4865 20.9141H22.4851ZM7.83166 20.0261H3.43133V15.848L7.83166 15.019V20.0261ZM7.83166 13.5194L3.43133 14.3484V9.91567L7.83166 8.81035V13.5194ZM7.83166 7.29347L3.43133 8.3988V3.62046L7.83166 2.2388V7.29347ZM13.6988 20.0265H9.29843V14.9678L13.6988 15.5391V20.0265ZM13.6988 14.0537L9.29843 13.4823V8.78905L13.6988 9.78786V14.0537ZM13.6988 8.27647L9.29843 7.27766V2.23737L13.6988 3.61903V8.27647ZM19.5659 20.0265H15.1655V15.7304L19.5659 16.3018V20.0265ZM19.5659 14.8163L15.1655 14.2449V10.1217L19.5659 11.1205V14.8163ZM19.5659 9.6106L15.1655 8.61179V4.07958L19.5659 5.46124V9.6106Z" fill="#333D4B" stroke="#333D4B"/>
</svg>
