<svg width="23" height="20" viewBox="0 0 23 20" fill="none" xmlns="http://www.w3.org/2000/svg">
<path d="M3.4231 7.46142C3.4231 6.90914 3.87081 6.46143 4.4231 6.46143H6.46156C7.01384 6.46143 7.46156 6.90914 7.46156 7.46143V16.1537H3.4231V7.46142Z" fill="#333D4B"/>
<path d="M9.88464 1C9.88464 0.447716 10.3324 0 10.8846 0H12.9231C13.4754 0 13.9231 0.447715 13.9231 1V16.1538H9.88464V1Z" fill="#333D4B"/>
<path d="M16.3462 4.23096C16.3462 3.67867 16.7939 3.23096 17.3462 3.23096H19.3847C19.9369 3.23096 20.3847 3.67867 20.3847 4.23096V16.154H16.3462V4.23096Z" fill="#333D4B"/>
<path d="M1 3.23096V18.5771H22" stroke="#333D4B" stroke-width="2" stroke-linecap="round" stroke-linejoin="round"/>
</svg>
