<svg width="14" height="17" viewBox="0 0 14 17" fill="none" xmlns="http://www.w3.org/2000/svg">
<path d="M13.0933 3.19995H0.506667C0.24 3.19995 0 3.41328 0 3.70662V4.21328C0 4.34662 0.0533334 4.47995 0.16 4.55995C0.266667 4.66662 0.373333 4.71995 0.506667 4.71995H1.01333V16.2933C1.01333 16.4266 1.06667 16.5599 1.17333 16.6399C1.28 16.7466 1.38667 16.8 1.52 16.8H12.08C12.2133 16.8 12.3467 16.7466 12.4267 16.6399C12.5333 16.5333 12.5867 16.4266 12.5867 16.2933V4.71995H13.0933C13.2267 4.71995 13.36 4.66662 13.44 4.55995C13.5467 4.45329 13.6 4.34662 13.6 4.21328V3.70662C13.6 3.57328 13.5467 3.43995 13.44 3.35995C13.3333 3.25329 13.2267 3.19995 13.0933 3.19995ZM11.0667 15.28H2.50667V4.71995H11.0667V15.28Z" fill="#374151"/>
<path d="M4.53333 5.6001H5.06667C5.34737 5.6001 5.6 5.91105 5.6 6.19091V13.8093C5.6 14.1202 5.37544 14.4001 5.06667 14.4001H4.53333C4.25263 14.4001 4 14.0891 4 13.8093V6.19091C4 5.87996 4.22456 5.6001 4.53333 5.6001Z" fill="#374151"/>
<path d="M8.53333 5.6001H9.06667C9.34737 5.6001 9.6 5.91105 9.6 6.19091V13.8093C9.6 14.1202 9.37544 14.4001 9.06667 14.4001H8.53333C8.25263 14.4001 8 14.0891 8 13.8093V6.19091C8 5.87996 8.22456 5.6001 8.53333 5.6001Z" fill="#374151"/>
<path d="M4.46872 0H9.13128C9.37797 0 9.6 0.280702 9.6 0.533334V1.06667C9.6 1.34737 9.40264 1.6 9.13128 1.6H4.46872C4.22203 1.6 4 1.3193 4 1.06667V0.533334C4 0.252632 4.19736 0 4.46872 0Z" fill="#374151"/>
</svg>
