<svg width="71" height="63" viewBox="0 0 71 63" fill="none" xmlns="http://www.w3.org/2000/svg">
<path d="M70.0387 52.8483L41.3005 3.359C38.688 -1.11967 32.1939 -1.11967 29.656 3.359L0.917808 52.8483C-1.69475 57.327 1.58961 63 6.74008 63H64.1417C69.3669 63 72.6512 57.4017 70.0387 52.8483ZM35.3289 13.66C37.4936 13.5853 39.2851 15.2275 39.4344 17.3922C39.4344 17.5415 39.4344 17.6161 39.4344 17.7654L38.464 38.5166C38.3894 40.1588 36.9711 41.4277 35.4036 41.3531C33.8361 41.2784 32.6417 40.0095 32.5671 38.5166L31.5967 17.6908C31.4474 15.6007 33.1643 13.7346 35.3289 13.66ZM35.4782 54.4159C33.015 54.4159 30.9996 52.4005 30.9996 49.9372C30.9996 47.4739 33.015 45.4585 35.4782 45.4585C37.9415 45.4585 39.9569 47.4739 39.9569 49.9372C39.9569 52.4005 37.9415 54.4159 35.4782 54.4159Z" fill="#FF3B30"/>
</svg>
