<svg width="22" height="16" viewBox="0 0 22 16" fill="none" xmlns="http://www.w3.org/2000/svg">
<path d="M17.9541 0C20.1871 0 22 1.82788 22 4.07715C21.9998 6.32754 20.1869 8.15332 17.9541 8.15332C17.0655 8.15321 16.2441 7.86388 15.5762 7.37305L14.1152 8.3623L14.1289 8.53418L15.4053 9.1123C16.0353 8.64143 16.815 8.3614 17.6592 8.36133C19.7505 8.36138 21.4492 10.0741 21.4492 12.1816C21.449 14.2892 19.7505 15.9999 17.6592 16C15.567 15.9998 13.8694 14.2893 13.8691 12.1816C13.8691 12.0893 13.8724 11.998 13.8789 11.9082L13.5332 11.751C13.335 12.4446 12.7018 12.9433 11.96 12.9434H10.041C9.29944 12.9432 8.66516 12.4447 8.46777 11.751L8.12207 11.9082C8.12824 11.9985 8.13086 12.0897 8.13086 12.1816C8.13063 14.2891 6.43297 15.9998 4.3418 16C2.24949 16 0.551009 14.2894 0.550781 12.1816C0.550781 10.0739 2.24944 8.36136 4.3418 8.36133C5.18484 8.3614 5.9647 8.64144 6.59473 9.1123L7.87109 8.53418L7.88477 8.3623L6.42383 7.37305C5.75683 7.86391 4.93437 8.15322 4.0459 8.15332C1.81299 8.15332 0.000180558 6.32748 0 4.07715C0 1.82781 1.81292 0 4.0459 0C6.20109 0.000234402 7.96346 1.70204 8.08398 3.84277L8.61719 4.20312C8.94472 3.85958 9.40722 3.64648 9.91406 3.64648H12.0879C12.5947 3.64662 13.0557 3.85984 13.3838 4.20312L13.916 3.84277C14.0366 1.70191 15.8003 0.000265274 17.9541 0ZM4.3418 9.22266C2.72086 9.22273 1.40528 10.549 1.40527 12.1816C1.40546 13.813 2.72107 15.1386 4.3418 15.1387C5.96148 15.1386 7.27716 13.8132 7.27734 12.1816C7.27734 12.0226 7.26502 11.8667 7.24121 11.7158L7.23926 11.708V11.7061C7.12791 11.0089 6.77254 10.3917 6.26465 9.94629L6.26367 9.94531C6.25995 9.94263 6.25499 9.93908 6.25 9.93457C5.737 9.4909 5.06938 9.22267 4.3418 9.22266ZM17.6602 9.22363C16.9314 9.22363 16.2643 9.49071 15.75 9.93457V9.93359C15.7466 9.93663 15.7432 9.93913 15.7402 9.94141V9.94238C15.2299 10.3881 14.8724 11.0068 14.7607 11.7061L14.7598 11.7158C14.736 11.8667 14.7236 12.0226 14.7236 12.1816C14.7237 13.8132 16.0393 15.1387 17.6602 15.1387C19.2797 15.1384 20.5946 13.8132 20.5947 12.1816C20.5947 10.549 19.2799 9.2239 17.6602 9.22363ZM4.39258 9.54297L4.40918 9.54199C5.8236 9.57939 6.96087 10.7472 6.96094 12.1816C6.96093 12.5922 6.86719 12.9804 6.70117 13.3271V13.3291L6.69043 13.3506V13.3496L6.68945 13.3525L6.68848 13.3545C6.25955 14.2226 5.36945 14.8212 4.3418 14.8213C3.46525 14.8213 2.68867 14.3857 2.21387 13.7197H2.21094L2.17676 13.668C1.88994 13.2444 1.72168 12.7323 1.72168 12.1816C1.72174 10.7248 2.89521 9.54105 4.3418 9.54102C4.35541 9.54102 4.37402 9.54197 4.39258 9.54297ZM17.6602 9.54102C19.1054 9.54128 20.2783 10.7249 20.2783 12.1816C20.2783 12.7323 20.1101 13.2443 19.8232 13.668C19.3512 14.3627 18.5579 14.8211 17.6602 14.8213C16.6338 14.8213 15.7429 14.224 15.3145 13.3574C15.3133 13.3553 15.3125 13.3527 15.3115 13.3506C15.1371 12.9978 15.0391 12.6014 15.0391 12.1816C15.0391 10.747 16.1776 9.57937 17.5908 9.54199H17.6074C17.6266 9.54098 17.645 9.54102 17.6602 9.54102ZM4.88672 12.9248C4.73432 13.0383 4.54587 13.1064 4.3418 13.1064C4.18642 13.1064 4.03878 13.067 3.91016 12.998L3.16699 13.5088C3.4788 13.7894 3.89104 13.96 4.3418 13.96C4.88107 13.9599 5.36329 13.715 5.6875 13.3301L4.88672 12.9248ZM16.3115 13.3301C16.6358 13.715 17.1198 13.9598 17.6592 13.96C18.1098 13.96 18.5214 13.7895 18.833 13.5088L18.0889 12.998C17.9607 13.0668 17.8146 13.1064 17.6592 13.1064C17.4542 13.1064 17.2657 13.0384 17.1133 12.9248L16.3115 13.3301ZM3.96582 10.4434C3.17101 10.6176 2.57525 11.3297 2.5752 12.1816C2.5752 12.3981 2.61472 12.6058 2.68555 12.7979L3.42969 12.2871C3.42596 12.2519 3.42383 12.2164 3.42383 12.1816C3.42388 11.8054 3.6464 11.4819 3.96582 11.3379V10.4434ZM18.0352 11.3379C18.3535 11.4819 18.5771 11.8052 18.5771 12.1816C18.5771 12.2171 18.5753 12.2525 18.5713 12.2871L19.3154 12.7969C19.3855 12.6049 19.4248 12.3978 19.4248 12.1816C19.4248 11.3297 18.8289 10.6176 18.0352 10.4434V11.3379ZM4.82031 11.3926C5.07345 11.5499 5.24529 11.8279 5.25684 12.1475L6.06641 12.5586C6.09244 12.4368 6.10644 12.3104 6.10645 12.1816C6.10639 11.3677 5.56157 10.6798 4.82031 10.4697V11.3926ZM17.1816 10.4688C16.4392 10.6786 15.8945 11.3673 15.8945 12.1816C15.8945 12.3108 15.9075 12.4371 15.9336 12.5586L16.7432 12.1484C16.7544 11.8282 16.927 11.549 17.1816 11.3916V10.4688ZM4.3418 12.1182C4.30659 12.1182 4.27839 12.1467 4.27832 12.1816C4.27832 12.1879 4.27847 12.1943 4.28027 12.2002L4.28906 12.2188C4.29871 12.2331 4.31807 12.2441 4.3418 12.2441C4.36585 12.244 4.38652 12.2307 4.39746 12.21C4.3982 12.2085 4.39966 12.2066 4.40039 12.2051C4.40379 12.1952 4.40527 12.1864 4.40527 12.1816C4.40521 12.1468 4.37685 12.1183 4.3418 12.1182ZM17.6592 12.1172C17.6241 12.1174 17.5957 12.1468 17.5957 12.1816C17.5957 12.1894 17.5983 12.198 17.6006 12.2051C17.6013 12.2066 17.6018 12.2085 17.6025 12.21C17.6131 12.2298 17.6344 12.244 17.6592 12.2441C17.6791 12.2441 17.6962 12.2354 17.708 12.2217L17.7129 12.2148C17.7188 12.2064 17.7236 12.1948 17.7236 12.1816C17.7236 12.1467 17.6944 12.1172 17.6592 12.1172ZM12.6396 11.6836C12.4519 11.7369 12.2565 11.7656 12.0586 11.7656H9.94336C9.74448 11.7656 9.54832 11.737 9.36035 11.6836C9.49563 11.9232 9.75192 12.084 10.042 12.084H11.96C12.2499 12.084 12.5046 11.9232 12.6396 11.6836ZM7.26562 9.75293C7.57224 10.1283 7.81038 10.5637 7.95801 11.0391L8.23535 10.9131C7.93225 10.5128 7.77596 10.0171 7.79688 9.51172L7.26562 9.75293ZM14.2031 9.51074C14.2242 10.0164 14.0681 10.5126 13.7656 10.9131L14.043 11.0391C14.1912 10.5639 14.428 10.1284 14.7354 9.75293L14.2031 9.51074ZM9.91406 4.50781C9.4372 4.50781 9.03829 4.86505 8.97852 5.33691L8.97363 5.38281L8.75586 8.17773C8.75576 8.17883 8.75599 8.18039 8.75586 8.18164L8.7041 8.84668V8.85352L8.70312 8.8584L8.65234 9.49902C8.62446 9.86152 8.74807 10.2184 8.99219 10.4854C9.23778 10.7524 9.58196 10.9042 9.94336 10.9043H12.0586C12.4187 10.9042 12.7622 10.7524 13.0078 10.4854C13.2522 10.2183 13.3758 9.86091 13.3477 9.49805L13.2998 8.87695L13.2988 8.875L13.2969 8.85254L13.2451 8.18164V8.1748L13.0264 5.38281C12.9885 4.88883 12.579 4.50788 12.0879 4.50781H9.91406ZM12.2822 6.85938C12.4856 6.8594 12.6822 6.94092 12.8262 7.08594C12.9711 7.23203 13.0527 7.42914 13.0527 7.63574V7.77734C13.0527 7.98377 12.9715 8.18109 12.8262 8.32617C12.6821 8.47227 12.4853 8.55271 12.2822 8.55273H9.71777C9.51396 8.55273 9.31872 8.47121 9.17383 8.3252C9.03003 8.18024 8.94929 7.98367 8.94922 7.77734V7.63574C8.94922 7.4292 9.02942 7.23188 9.17285 7.08594L9.17383 7.08496C9.31859 6.94058 9.51409 6.85938 9.71777 6.85938H12.2822ZM8.02148 4.83691C7.88348 5.57277 7.54946 6.23883 7.07617 6.77734L7.96191 7.37695L8.12305 5.31543C8.1331 5.18987 8.15489 5.06747 8.18848 4.9502L8.02148 4.83691ZM13.8115 4.95117C13.8399 5.04947 13.8612 5.15106 13.873 5.25586L13.8789 5.31543L14.0391 7.37695L14.9258 6.77734C14.4526 6.23886 14.1185 5.5727 13.9805 4.83691L13.8115 4.95117ZM4.0459 0.861328C2.28437 0.861328 0.8545 2.3028 0.854492 4.07715C0.854746 5.85134 2.28458 7.29199 4.0459 7.29199C4.83834 7.2919 5.56232 7.00219 6.12012 6.52051L6.12305 6.51758L6.12695 6.51465C6.12826 6.51353 6.13066 6.51132 6.13379 6.50879C6.80937 5.91781 7.23619 5.04766 7.23633 4.07715C7.23632 2.30287 5.80719 0.861538 4.0459 0.861328ZM17.9551 0.861328C16.1936 0.861339 14.7637 2.3028 14.7637 4.07715C14.7638 5.04841 15.1917 5.91869 15.8682 6.50977C15.8716 6.51244 15.8755 6.51651 15.8799 6.52051C16.4378 7.00232 17.1636 7.29199 17.9551 7.29199C19.7165 7.29194 21.1463 5.85134 21.1465 4.07715C21.1465 2.30277 19.7165 0.861383 17.9551 0.861328ZM17.9551 1.26953C19.4924 1.26971 20.7422 2.52744 20.7422 4.07715C20.7421 4.66354 20.5626 5.20819 20.2568 5.65918L20.2217 5.71094H20.2197C19.7153 6.42178 18.888 6.88563 17.9551 6.88574C16.8642 6.88573 15.9204 6.25191 15.4629 5.33203C15.4622 5.33075 15.4616 5.32941 15.4609 5.32812C15.4604 5.3271 15.4595 5.32525 15.459 5.32422L15.458 5.32227L15.3926 5.17969C15.2486 4.84107 15.169 4.46847 15.1689 4.07715C15.169 2.55301 16.3766 1.3112 17.8799 1.27148C17.8811 1.27134 17.8832 1.27066 17.8848 1.27051C17.8883 1.27018 17.8934 1.26953 17.8994 1.26953H17.9551ZM4.11523 1.27051C4.11806 1.27078 4.12083 1.27135 4.12207 1.27148C5.62438 1.31221 6.83203 2.55357 6.83203 4.07715C6.83199 4.51497 6.73265 4.9302 6.55469 5.2998L6.54199 5.3252L6.51074 5.38867H6.50977C6.04215 6.27808 5.11342 6.88477 4.04492 6.88477C3.08936 6.88462 2.24576 6.3993 1.74414 5.65918C1.43837 5.2082 1.25981 4.66354 1.25977 4.07715C1.25977 2.52752 2.50759 1.26977 4.04492 1.26953H4.10059C4.10648 1.26953 4.11174 1.27018 4.11523 1.27051ZM11.9258 4.98535C12.3888 4.98539 12.7656 5.36497 12.7656 5.83203C12.7655 6.30009 12.3889 6.67964 11.9258 6.67969H10.0752C9.61117 6.67952 9.23445 6.30014 9.23438 5.83203C9.23438 5.36492 9.61125 4.98552 10.0752 4.98535H11.9258ZM4.62988 4.83887C4.46847 4.96412 4.26589 5.04003 4.04492 5.04004C3.87729 5.03997 3.71865 4.99486 3.58105 4.91699L2.73047 5.50195C3.07553 5.82539 3.53773 6.02431 4.04492 6.02441C4.65058 6.0244 5.19139 5.74218 5.5459 5.30273L4.62988 4.83887ZM16.4551 5.30273C16.8096 5.74225 17.3505 6.02441 17.9551 6.02441C18.4633 6.02432 18.9255 5.82531 19.2705 5.50195L18.4199 4.91699C18.2821 4.99467 18.1239 5.03997 17.9551 5.04004C17.7355 5.04004 17.5321 4.96422 17.3711 4.83887L16.4551 5.30273ZM3.67383 2.16699C2.78455 2.34211 2.11429 3.13213 2.11426 4.07715C2.11429 4.32906 2.16194 4.56953 2.24805 4.79004L3.09961 4.20605C3.09406 4.16424 3.09083 4.12102 3.09082 4.07715C3.09085 3.67911 3.33111 3.33765 3.67383 3.19141V2.16699ZM18.3271 3.19141C18.669 3.33756 18.9101 3.67885 18.9102 4.07715C18.9101 4.1208 18.9072 4.16388 18.9014 4.20605L19.752 4.79004C19.8384 4.5693 19.8877 4.32889 19.8877 4.07715C19.8877 3.13213 19.2156 2.34205 18.3271 2.16699V3.19141ZM4.52832 3.24707C4.80578 3.41202 4.99485 3.71495 5 4.0625L5.9248 4.53027C5.95911 4.3846 5.97752 4.23277 5.97754 4.07715C5.97751 3.17124 5.36115 2.40886 4.52832 2.19238V3.24707ZM17.4727 2.19238C16.639 2.40885 16.0234 3.17116 16.0234 4.07715C16.0235 4.23316 16.0418 4.38494 16.0762 4.53027L17.001 4.06152C17.0064 3.71442 17.1942 3.41097 17.4727 3.24609V2.19238ZM4.04492 3.97656C3.98981 3.97678 3.94535 4.0221 3.94531 4.07715C3.94536 4.09873 3.95175 4.11794 3.96191 4.13281L3.96582 4.13867C3.98522 4.16364 4.01382 4.17859 4.04492 4.17871C4.08313 4.1787 4.11731 4.15701 4.13477 4.12402C4.13584 4.12186 4.13662 4.11935 4.1377 4.11719L4.13867 4.11621C4.14379 4.10428 4.14645 4.09176 4.14648 4.07715C4.14644 4.0224 4.10179 3.97658 4.04492 3.97656ZM17.9551 3.97656C17.8998 3.97656 17.8545 4.02195 17.8545 4.07715C17.8545 4.09099 17.8574 4.10375 17.8623 4.11719C17.8632 4.11905 17.8643 4.12118 17.8652 4.12305C17.8825 4.15667 17.9164 4.17871 17.9551 4.17871C17.9901 4.1786 18.0196 4.16102 18.0371 4.13477L18.043 4.12695C18.051 4.11304 18.0566 4.09602 18.0566 4.07715C18.0566 4.02248 18.0118 3.97675 17.9551 3.97656Z" fill="#333D4B"/>
</svg>
