<svg width="15" height="15" viewBox="0 0 15 15" fill="none" xmlns="http://www.w3.org/2000/svg">
<path d="M0 12.8856V3.53165C8.54307e-06 2.97083 0.222567 2.43291 0.619127 2.03635C1.01569 1.63982 1.55363 1.41722 2.11443 1.41722H6.79104C7.22086 1.41722 7.56972 1.76547 7.56979 2.19527C7.56979 2.62513 7.2209 2.97402 6.79104 2.97402H2.11443C1.96648 2.97402 1.8245 3.03249 1.71987 3.13709C1.61524 3.24172 1.55612 3.38368 1.55611 3.53165V12.8856C1.55611 13.0336 1.61524 13.1755 1.71987 13.2801C1.82451 13.3848 1.96645 13.4439 2.11443 13.4439H11.4684C11.6163 13.4439 11.7583 13.3848 11.8629 13.2801C11.9675 13.1755 12.026 13.0335 12.026 12.8856V8.20895C12.026 7.7791 12.3749 7.43021 12.8047 7.43021C13.2345 7.43028 13.5828 7.77914 13.5828 8.20895V12.8856C13.5828 13.4464 13.3602 13.9843 12.9637 14.3809C12.5671 14.7774 12.0292 15 11.4684 15H2.11443C1.5536 15 1.01569 14.7774 0.619127 14.3809C0.222559 13.9843 0 13.4464 0 12.8856ZM13.4439 2.19527C13.4439 2.02584 13.3764 1.86318 13.2566 1.74337C13.1368 1.62356 12.9742 1.55614 12.8047 1.55611C12.6353 1.55611 12.4726 1.62361 12.3528 1.74337L6.15741 7.93809L5.85614 9.14317L7.06122 8.8419L13.2566 2.64718C13.3764 2.52735 13.4439 2.36469 13.4439 2.19527ZM15 2.19527C15 2.77754 14.7691 3.33617 14.3574 3.74793L8.00995 10.0954C7.91028 10.195 7.78529 10.2656 7.64856 10.2999L4.97582 10.9681C4.71058 11.0344 4.42978 10.9569 4.23646 10.7635C4.04313 10.5702 3.96561 10.2894 4.03192 10.0242L4.70011 7.35144L4.73259 7.25124C4.7716 7.15382 4.82992 7.06477 4.90464 6.99005L11.2521 0.64262C11.6638 0.230929 12.2225 -6.13522e-09 12.8047 0C13.387 3.27314e-05 13.9456 0.230881 14.3574 0.64262C14.7691 1.05436 15 1.61299 15 2.19527Z" fill="#374151"/>
</svg>
