<svg width="22" height="18" viewBox="0 0 22 18" fill="none" xmlns="http://www.w3.org/2000/svg">
<path d="M2.2 18C1.595 18 1.07708 17.7797 0.64625 17.3391C0.215417 16.8984 0 16.3687 0 15.75V2.25C0 1.63125 0.215417 1.10156 0.64625 0.660938C1.07708 0.220313 1.595 0 2.2 0H8.8L11 2.25H19.8C20.405 2.25 20.9229 2.47031 21.3538 2.91094C21.7846 3.35156 22 3.88125 22 4.5V15.75C22 16.3687 21.7846 16.8984 21.3538 17.3391C20.9229 17.7797 20.405 18 19.8 18H2.2ZM2.2 15.75H19.8V4.5H10.0925L7.8925 2.25H2.2V15.75Z" fill="#333D4B"/>
</svg>
