<svg width="24" height="21" viewBox="0 0 24 21" fill="none" xmlns="http://www.w3.org/2000/svg">
<path fill-rule="evenodd" clip-rule="evenodd" d="M9.10116 14.6093V20.4243C9.10116 20.7409 8.8515 21 8.54636 21H3.27574C2.9706 21 2.72094 20.7409 2.72094 20.4243V11.5867C2.72094 11.3564 2.5545 11.1837 2.33257 11.1837H0.557208C0.0301463 11.1837 -0.191775 10.4928 0.196587 10.1474L11.6255 0.129541C11.8474 -0.0431803 12.1526 -0.0431803 12.3468 0.129541L23.8034 10.1474C24.1918 10.4928 23.9699 11.1837 23.4428 11.1837H21.6674C21.4455 11.1837 21.2791 11.3564 21.2791 11.5867V20.4243C21.2791 20.7409 21.0294 21 20.7243 21H15.4536C15.1485 21 14.8988 20.7409 14.8988 20.4243V14.6093C14.8988 14.379 14.7324 14.2063 14.5105 14.2063H9.545C9.32308 14.2063 9.15664 14.379 9.15664 14.6093H9.10116Z" fill="#333D4B"/>
</svg>
