<svg width="144" height="144" viewBox="0 0 144 144" fill="none" xmlns="http://www.w3.org/2000/svg">
<rect width="144" height="144" rx="10" fill="#EFDEFF"/>
<path fill-rule="evenodd" clip-rule="evenodd" d="M73.0371 35.0305C62.5285 32.1268 52.8276 35.1806 45.5732 46.4797C42.8522 50.7214 39.3856 54.681 37.027 58.695C34.2672 63.3896 32.9597 68.1722 34.9817 73.3974C36.4497 77.1862 39.0697 80.6903 41.9254 84.241C44.5169 87.4656 47.3053 90.7446 49.379 94.4351C55.1706 104.743 63.2353 109.712 72.2708 109.989C81.2727 110.263 91.1988 105.442 98.5903 98.2161C106.054 90.9206 110.854 81.2286 109.873 72.1836C109.156 65.5687 105.821 58.9667 100.905 53.149C93.7283 44.6578 83.1885 37.8359 73.0371 35.0305ZM71.6598 40.0201C80.8766 42.5667 90.4325 48.7804 96.9489 56.49C101.161 61.4719 104.113 67.0775 104.726 72.7426C105.55 80.3487 101.247 88.3792 94.9684 94.5179C88.6176 100.726 80.1672 105.051 72.4261 104.813C65.0527 104.59 58.6217 100.315 53.8942 91.8989C51.6806 87.9599 48.7292 84.4429 45.9616 81.0009C43.4555 77.8849 41.0969 74.8518 39.8128 71.5288C38.4018 67.8849 39.5668 64.5904 41.4904 61.3166C43.8179 57.357 47.2457 53.4595 49.9331 49.2747C55.6884 40.3048 63.3181 37.7142 71.6598 40.0201ZM72.9025 48.5268C66.0831 46.6428 59.7712 48.5889 55.0644 55.9233C53.3997 58.5164 51.2819 60.9388 49.8425 63.3922C47.9965 66.5288 47.1732 69.7302 48.5247 73.2214C49.4541 75.6178 51.0981 77.8435 52.9052 80.0899C54.4483 82.0102 56.1156 83.9589 57.3505 86.1561C61.0838 92.7995 66.311 95.962 72.1362 96.138C77.863 96.314 84.193 93.2834 88.8946 88.6872C93.6713 84.0184 96.69 77.7943 96.0609 72.0076C95.6053 67.7944 93.5004 63.5837 90.3678 59.8777C85.8707 54.5568 79.2662 50.2841 72.9025 48.5268ZM71.5252 53.5165C76.9517 55.0149 82.5775 58.6769 86.4144 63.2162C88.8377 66.0863 90.5593 69.3032 90.914 72.5666C91.3852 76.9144 88.8636 81.477 85.2752 84.9864C81.6118 88.5681 76.7549 91.1018 72.2941 90.9646C68.1284 90.8378 64.5349 88.3714 61.8657 83.6199C60.4909 81.1743 58.6605 78.9874 56.9414 76.8471C55.4864 75.0381 54.1013 73.2835 53.3557 71.3528C52.6153 69.4429 53.2988 67.7297 54.3059 66.0138C55.7143 63.6174 57.7958 61.2545 59.4217 58.7183C62.6346 53.7157 66.8728 52.2302 71.5252 53.5165ZM72.7912 59.8725C69.0708 58.8451 65.6094 59.8648 63.0437 63.8632C62.0676 65.385 60.7964 66.8032 60.1363 68.255C59.4372 69.7949 59.2534 71.3736 59.911 73.0713C60.3045 74.0883 60.9311 75.0537 61.6663 76.0035C62.4534 77.0205 63.3932 78.0273 64.0508 79.197C66.0547 82.7607 68.8974 84.4015 72.0222 84.4972C74.9944 84.5878 78.3031 83.0609 80.7445 80.6748C83.2584 78.2136 84.7807 74.9061 84.4493 71.8601C83.8875 66.666 78.2513 61.3813 72.7912 59.8725ZM71.4113 64.8622C73.6533 65.4807 75.973 66.9973 77.5575 68.8736C78.4792 69.9657 79.1678 71.1743 79.3025 72.4165C79.4759 74.0262 78.4533 75.6748 77.1225 76.9739C75.7193 78.3456 73.8889 79.3756 72.1802 79.3238C70.7148 79.2773 69.5058 78.3326 68.566 76.6608C67.8954 75.4703 67.0126 74.3989 66.1737 73.3585C65.599 72.6443 65.0346 71.9662 64.7395 71.2027C64.4857 70.5454 65.0087 70.033 65.4126 69.4429C66.0314 68.5345 66.7822 67.621 67.4009 66.6582C68.4728 64.989 69.8579 64.4326 71.4113 64.8622Z" fill="#9810FA" stroke="#9810FA"/>
</svg>
