<svg width="144" height="144" viewBox="0 0 144 144" fill="none" xmlns="http://www.w3.org/2000/svg">
<rect width="144" height="144" rx="10" fill="#D7E6FF"/>
<path fill-rule="evenodd" clip-rule="evenodd" d="M52.6439 68.6369C49.8587 70.7594 46.3748 72.0148 42.6012 72.0148C33.4369 72.0148 26 64.5912 26 55.4439C26 46.3014 33.4372 38.873 42.6012 38.873C51.5308 38.873 58.8178 45.9229 59.187 54.7411L62.0072 56.6295C63.3099 55.1049 65.2566 54.1433 67.4079 54.1433H76.5971C78.7484 54.1433 80.69 55.1049 81.9978 56.6295L84.813 54.7411C85.1823 45.9224 92.4748 38.873 101.399 38.873C110.563 38.873 118 46.3016 118 55.4439C118 64.5915 110.563 72.0148 101.399 72.0148C97.6253 72.0148 94.1463 70.7593 91.3561 68.6369L84.6476 73.1408L84.7524 74.4461L90.6822 77.1066C93.3027 75.0888 96.587 73.8881 100.151 73.8881C108.716 73.8881 115.67 80.8334 115.67 89.3825C115.67 97.9321 108.717 104.873 100.151 104.873C91.5807 104.873 84.6282 97.9327 84.6282 89.3825C84.6282 88.8892 84.6532 88.406 84.6981 87.9277L82.3622 86.8764C81.7881 89.8608 79.1677 92.0729 76.058 92.0729H67.9469C64.8373 92.0729 62.2118 89.8608 61.6428 86.8764L59.3068 87.9277C59.3517 88.406 59.3717 88.8893 59.3717 89.3825C59.3717 97.9321 52.4187 104.873 43.8528 104.873C35.2826 104.873 28.3301 97.9327 28.3301 89.3825C28.3301 80.8329 35.2831 73.8881 43.8528 73.8881C47.4117 73.8881 50.6961 75.0888 53.3164 77.1066L59.2462 74.4461L59.351 73.1408L52.6439 68.6369ZM56.5921 55.4434C56.5921 47.7358 50.3229 41.4783 42.6014 41.4783C34.8797 41.4783 28.6108 47.736 28.6108 55.4434C28.6108 63.1511 34.8799 69.4085 42.6014 69.4085C46.0755 69.4085 49.25 68.148 51.6958 66.0554C51.7158 66.0405 51.7308 66.0255 51.7507 66.0106C54.7156 63.4447 56.5921 59.6634 56.5921 55.4434ZM60.7051 58.8961L59.0429 57.7801C58.5488 61.2677 56.9665 64.4065 54.6505 66.8429L59.587 70.1562L60.3357 60.6699C60.3856 60.0521 60.5104 59.4591 60.7051 58.8961ZM83.2966 58.8961C83.4913 59.4591 83.621 60.052 83.671 60.6698L84.4147 70.1561L89.3562 66.8428C87.0402 64.4064 85.4579 61.2676 84.9637 57.7799L83.2966 58.8961ZM81.9889 72.5781L81.0655 60.8746C80.8858 58.5429 78.9341 56.7492 76.5982 56.7492H67.409C65.068 56.7492 63.1213 58.5428 62.9367 60.8746L62.0183 72.5781C62.0183 72.583 62.0183 72.588 62.0133 72.593L61.7936 75.403V75.4279L61.579 78.1084C61.4492 79.7676 62.0182 81.4017 63.1464 82.6224C64.2794 83.8431 65.8667 84.5356 67.5338 84.5356H76.4734C78.1356 84.5356 79.7229 83.8431 80.8559 82.6224C81.984 81.4018 82.553 79.7676 82.4233 78.1084L82.2136 75.4279C82.2136 75.4229 82.2136 75.413 82.2086 75.403L81.989 72.593L81.9889 72.5781ZM92.3061 66.0562C94.752 68.1487 97.9314 69.4093 101.4 69.4093C109.122 69.4093 115.391 63.1516 115.391 55.4442C115.391 47.7365 109.122 41.4791 101.4 41.4791C93.6787 41.4791 87.4098 47.7368 87.4098 55.4442C87.4098 59.6642 89.2867 63.4457 92.2516 66.0117C92.2715 66.0266 92.2911 66.0413 92.3061 66.0562ZM88.6075 79.0303L84.9888 77.4061L85.0237 77.9043C85.2084 80.226 84.4347 82.5229 82.8924 84.2618L85.1785 85.2881C85.8273 82.9314 87.0152 80.799 88.6075 79.0303ZM87.3996 87.3556C87.2948 88.0133 87.2399 88.6909 87.2399 89.3834C87.2399 96.4931 93.0249 102.268 100.152 102.268C107.275 102.268 113.06 96.4937 113.06 89.3834C113.06 82.2687 107.275 76.4948 100.152 76.4948C96.9476 76.4948 94.0176 77.6606 91.7565 79.5938C91.7415 79.6087 91.7266 79.6187 91.7116 79.6286C89.4655 81.5717 87.8931 84.2721 87.404 87.3264C87.404 87.3363 87.3996 87.3457 87.3996 87.3556ZM64.2241 86.4788C64.5985 88.2027 66.1358 89.4732 67.9478 89.4732H76.0589C77.8708 89.4732 79.4031 88.2027 79.7775 86.4788C78.7393 86.9122 77.6162 87.1414 76.4733 87.1414H67.5336C66.3856 87.1414 65.2623 86.9122 64.2241 86.4788ZM58.8234 85.288L61.1145 84.2616C59.5672 82.5228 58.7935 80.2259 58.9781 77.9042L59.018 77.406L55.3993 79.0301C56.9866 80.7988 58.1795 82.9314 58.8234 85.288ZM52.2447 79.5933C49.9887 77.6602 47.0537 76.4943 43.8542 76.4943C36.7265 76.4943 30.942 82.2687 30.942 89.3829C30.942 96.4926 36.727 102.268 43.8542 102.268C50.9769 102.268 56.7625 96.4932 56.7625 89.3829C56.7625 88.6903 56.7076 88.0128 56.6028 87.3551C56.6028 87.3452 56.6028 87.3352 56.5978 87.3252C56.1087 84.2711 54.5363 81.5707 52.2902 79.6275C52.2752 79.6176 52.2597 79.6082 52.2447 79.5933ZM90.6733 94.0571C89.9695 92.6471 89.5752 91.0627 89.5752 89.3836C89.5752 83.649 94.1674 78.9807 99.8725 78.8312H99.9324C100.007 78.8262 100.077 78.8262 100.152 78.8262C105.987 78.8262 110.724 83.5593 110.724 89.3836C110.724 91.5859 110.045 93.6335 108.887 95.3276C106.98 98.1077 103.776 99.9362 100.152 99.9362C96.0041 99.9362 92.4054 97.5447 90.6783 94.072C90.6733 94.067 90.6733 94.0621 90.6733 94.0571ZM98.6297 81.5815C94.961 82.289 92.1907 85.5174 92.1907 89.3838C92.1907 90.1809 92.3055 90.9532 92.5301 91.6856L96.7778 89.5532C96.7728 89.4983 96.7728 89.4386 96.7728 89.3838C96.7728 88.0685 97.5265 86.9275 98.6296 86.3694L98.6297 81.5815ZM107.38 92.7219C107.849 91.7055 108.113 90.5745 108.113 89.3838C108.113 85.3631 105.119 82.0399 101.24 81.5067V86.1901C102.568 86.6385 103.531 87.899 103.531 89.3838C103.531 89.613 103.506 89.8421 103.461 90.0614L107.38 92.7219ZM93.6829 94.0223C95.1304 96.0251 97.4914 97.3306 100.152 97.3306C102.413 97.3306 104.454 96.3889 105.902 94.8743L101.989 92.2138C101.46 92.5576 100.831 92.7568 100.152 92.7568C99.2883 92.7568 98.5046 92.433 97.9057 91.9049L93.6829 94.0223ZM100.786 89.8122C100.871 89.6926 100.92 89.5432 100.92 89.3837C100.92 88.9602 100.576 88.6164 100.152 88.6164C99.7275 88.6164 99.3831 88.9602 99.3831 89.3837C99.3831 89.4834 99.4031 89.588 99.438 89.6777C99.448 89.6976 99.458 89.7175 99.468 89.7375C99.5978 89.9816 99.8573 90.146 100.152 90.146C100.416 90.146 100.646 90.0165 100.786 89.8172L100.786 89.8122ZM91.292 60.4369C90.5433 58.9322 90.1241 57.2383 90.1241 55.4446C90.1241 49.3313 95.0156 44.349 101.105 44.1946C101.125 44.1946 101.145 44.1896 101.165 44.1896H101.4C107.624 44.1896 112.68 49.2316 112.68 55.4446C112.68 57.7963 111.956 59.9785 110.719 61.7871H110.714C108.687 64.7565 105.268 66.7047 101.4 66.7047C96.9722 66.7047 93.1438 64.1537 91.297 60.447C91.292 60.442 91.292 60.4369 91.292 60.4369ZM99.8622 46.9297C95.8092 47.6571 92.7345 51.1946 92.7345 55.4445C92.7345 56.3562 92.8743 57.238 93.1389 58.0652L97.8707 55.6886C97.8657 55.6089 97.8657 55.5291 97.8657 55.4444C97.8657 54.0493 98.6793 52.8387 99.8623 52.2657L99.8622 46.9297ZM109.216 59.1862C109.76 58.0552 110.07 56.7847 110.07 55.4445C110.07 51.0352 106.75 47.3881 102.473 46.8599V52.0814C103.9 52.5348 104.939 53.87 104.939 55.4445C104.939 55.7135 104.909 55.9726 104.849 56.2167L109.216 59.1862ZM94.2965 60.4018C95.8639 62.6339 98.4643 64.0987 101.399 64.0987C103.905 64.0987 106.161 63.0324 107.743 61.3384L103.381 58.369C102.812 58.7526 102.133 58.9768 101.399 58.9768C100.476 58.9768 99.6322 58.6181 99.0033 58.0402L94.2965 60.4018ZM102.168 55.9626C102.268 55.8181 102.328 55.6387 102.328 55.4444C102.328 54.9362 101.913 54.5227 101.399 54.5227C100.89 54.5227 100.476 54.9362 100.476 55.4444C100.476 55.5739 100.501 55.6935 100.546 55.8081C100.556 55.8281 100.566 55.848 100.576 55.8679C100.731 56.1669 101.04 56.3711 101.399 56.3711C101.719 56.3711 101.998 56.2117 102.163 55.9676L102.168 55.9626ZM33.2869 61.7869C32.049 59.9783 31.3252 57.7961 31.3252 55.4443C31.3252 49.2314 36.3765 44.1894 42.6008 44.1894H42.8354C42.8554 44.1894 42.8753 44.1943 42.8953 44.1943C48.9848 44.3488 53.8814 49.331 53.8814 55.4444C53.8814 57.2379 53.4622 58.932 52.7134 60.4367C52.7085 60.4367 52.7085 60.4416 52.7085 60.4466C50.8616 64.1534 47.0282 66.7043 42.6008 66.7043C38.7325 66.7043 35.3185 64.7564 33.2869 61.7869ZM41.5327 46.8601C37.25 47.3882 33.9358 51.0352 33.9358 55.4446C33.9358 56.7849 34.2402 58.0554 34.7843 59.1863L39.1518 56.2169C39.0969 55.9728 39.067 55.7137 39.067 55.4446C39.067 53.8702 40.1002 52.535 41.5327 52.0816L41.5327 46.8601ZM50.8666 58.0653C51.1262 57.2382 51.2709 56.3564 51.2709 55.4446C51.2709 51.1947 48.1912 47.6572 44.1432 46.9298V52.2659C45.3212 52.8388 46.1398 54.0495 46.1398 55.4446C46.1398 55.5293 46.1348 55.609 46.1298 55.6887L50.8666 58.0653ZM36.2614 61.3387C37.8437 63.0326 40.0998 64.0989 42.6004 64.0989C45.5404 64.0989 48.1408 62.6342 49.7082 60.4021L45.0013 58.0404C44.3674 58.6184 43.5289 58.9771 42.6004 58.9771C41.8717 58.9771 41.1878 58.7529 40.6238 58.3693L36.2614 61.3387ZM43.454 55.8084C43.5039 55.6938 43.5289 55.5742 43.5289 55.4447C43.5289 54.9365 43.1146 54.5229 42.6005 54.5229C42.0913 54.5229 41.677 54.9365 41.677 55.4447C41.677 55.639 41.7369 55.8183 41.8368 55.9628V55.9678C42.0065 56.2119 42.286 56.3714 42.6005 56.3714C42.9598 56.3714 43.2693 56.1671 43.424 55.8682C43.434 55.8482 43.444 55.8283 43.454 55.8084ZM77.4205 67.5965C78.1492 67.5965 78.853 67.8855 79.3671 68.3987C79.8862 68.9168 80.1757 69.6143 80.1757 70.3467V70.9396C80.1757 71.672 79.8862 72.3695 79.3671 72.8826C78.853 73.4008 78.1492 73.6897 77.4205 73.6897H66.5791C65.8504 73.6897 65.1516 73.4008 64.6325 72.8826C64.1184 72.3694 63.8289 71.6719 63.8289 70.9396V70.3467C63.8289 69.6143 64.1184 68.9167 64.6325 68.3987C65.1516 67.8855 65.8504 67.5965 66.5791 67.5965H77.4205ZM77.4205 70.2023H66.5791C66.5442 70.2023 66.5042 70.2172 66.4793 70.2421C66.4493 70.272 66.4344 70.3069 66.4344 70.3468V70.9397C66.4344 70.9795 66.4493 71.0144 66.4793 71.0393C66.5042 71.0692 66.5442 71.0841 66.5791 71.0841H77.4205C77.4604 71.0841 77.4954 71.0692 77.5203 71.0393C77.5503 71.0144 77.5652 70.9795 77.5652 70.9397V70.3468C77.5652 70.3069 77.5503 70.272 77.5203 70.2421C77.4954 70.2172 77.4604 70.2023 77.4205 70.2023ZM75.9131 59.7494C77.5952 59.7494 78.9628 61.1146 78.9628 62.7936C78.9628 64.4776 77.5952 65.8427 75.9131 65.8427H68.0915C66.4044 65.8427 65.0368 64.4776 65.0368 62.7936C65.0368 61.1146 66.4044 59.7494 68.0915 59.7494H75.9131ZM75.9131 62.3552H68.0915C67.8469 62.3552 67.6473 62.5545 67.6473 62.7937C67.6473 63.0378 67.8469 63.2371 68.0915 63.2371H75.9131C76.1576 63.2371 76.3523 63.0378 76.3523 62.7937C76.3523 62.5545 76.1576 62.3552 75.9131 62.3552ZM35.1129 95.3286C33.9549 93.6347 33.276 91.5869 33.276 89.3847C33.276 83.5604 38.0128 78.8273 43.8528 78.8273C43.9227 78.8273 43.9975 78.8273 44.0674 78.8322H44.1273C49.8375 78.9817 54.4246 83.6501 54.4246 89.3847C54.4246 91.0637 54.0303 92.6481 53.3315 94.0581C53.3315 94.0631 53.3265 94.0681 53.3265 94.0731C51.5944 97.5458 48.0006 99.9373 43.8527 99.9373C40.224 99.9373 37.0194 98.1088 35.1178 95.3287L35.1129 95.3286ZM42.7647 81.5076C38.8814 82.0408 35.8866 85.3639 35.8866 89.3847C35.8866 90.5755 36.1511 91.7064 36.6253 92.7228L40.5386 90.0623C40.4937 89.8431 40.4737 89.6139 40.4737 89.3847C40.4737 87.9 41.432 86.6396 42.7648 86.1911L42.7647 81.5076ZM51.4747 91.6865C51.6944 90.9541 51.8141 90.1819 51.8141 89.3847C51.8141 85.5185 49.0389 82.2899 45.3752 81.5824V86.3704C46.4733 86.9284 47.227 88.0693 47.227 89.3847V89.5541L51.4747 91.6865ZM38.0974 94.8752C39.5449 96.3898 41.5915 97.3315 43.8525 97.3315C46.5129 97.3315 48.8689 96.0262 50.3164 94.0232L46.0937 91.9057C45.4947 92.4338 44.7111 92.7576 43.8525 92.7576C43.1737 92.7576 42.5398 92.5583 42.0107 92.2146L38.0974 94.8752ZM44.5613 89.6787C44.5963 89.589 44.6212 89.4844 44.6212 89.3847C44.6212 88.9612 44.2768 88.6175 43.8525 88.6175C43.4283 88.6175 43.0839 88.9612 43.0839 89.3847C43.0839 89.5442 43.1338 89.6936 43.2186 89.8182C43.3534 90.0175 43.588 90.147 43.8525 90.147C44.147 90.147 44.4016 89.9826 44.5314 89.7385C44.5414 89.7185 44.5513 89.6986 44.5613 89.6787Z" fill="#155DFC" stroke="#155DFC" stroke-width="0.5"/>
</svg>
