<svg width="144" height="144" viewBox="0 0 144 144" fill="none" xmlns="http://www.w3.org/2000/svg">
<rect width="144" height="144" rx="10" fill="#FFE1C9"/>
<path d="M92.4845 45.7941C95.162 45.7941 97.4275 47.9294 97.4275 50.4529C97.4275 52.9765 95.162 55.1118 92.4845 55.1118C89.807 55.1118 87.5415 52.9765 87.5415 50.4529C87.5415 47.9294 89.807 45.7941 92.4845 45.7941ZM58.2952 45.8912C62.9293 45.8912 66.6366 49.3853 66.6366 53.7529C66.6366 58.1206 62.9293 61.6147 58.2952 61.6147C53.6611 61.6147 49.9539 58.1206 49.9539 53.7529C49.9539 49.3853 53.6611 45.8912 58.2952 45.8912ZM92.4845 72C95.162 72 101.753 72 104.842 83.6471H92.2786C91.2488 81.3176 90.013 79.0853 88.6743 77.0471C87.9534 75.8824 87.1296 74.8147 86.2028 73.65C87.9534 72.4853 90.013 72 92.4845 72ZM58.2952 79.4735C61.8995 79.4735 72.5064 79.4735 76.7286 98.2059H39.8619C44.084 79.4735 54.6909 79.4735 58.2952 79.4735ZM92.4845 39C85.7908 39 80.3329 44.1441 80.3329 50.4529C80.3329 56.7618 85.7908 61.9059 92.4845 61.9059C99.1782 61.9059 104.636 56.7618 104.636 50.4529C104.636 44.1441 99.1782 39 92.4845 39ZM58.2952 39.0971C49.6449 39.0971 42.7453 45.6971 42.7453 53.7529C42.7453 61.8088 49.7479 68.4088 58.2952 68.4088C66.8426 68.4088 73.8452 61.8088 73.8452 53.7529C73.8452 45.6971 66.8426 39.0971 58.2952 39.0971ZM92.4845 65.2059C84.761 65.2059 79.715 68.7971 76.5227 73.9412C78.7882 75.7853 80.8478 77.9206 82.4955 80.5412C84.3491 83.3559 85.9968 86.6559 87.2326 90.4412H110.403C111.948 90.4412 113.183 89.0824 112.977 87.6265C111.33 76.3676 106.181 65.2059 92.4845 65.2059ZM58.2952 72.6794C40.8917 72.6794 34.3009 86.6559 32.0354 100.826C31.7264 102.962 33.4771 105 35.8456 105H80.7448C83.1134 105 84.864 103.059 84.5551 100.826C82.2895 86.6559 75.6988 72.6794 58.2952 72.6794Z" fill="#F54900"/>
</svg>
