<svg width="144" height="144" viewBox="0 0 144 144" fill="none" xmlns="http://www.w3.org/2000/svg">
<rect width="144" height="144" rx="10" fill="#D7E6FF"/>
<path d="M85.6082 79.7615C89.0572 79.7615 92.168 77.6859 93.4851 74.4982C94.8073 71.3105 94.0796 67.6411 91.6402 65.2017C89.2009 62.7623 85.5314 62.0344 82.3437 63.3568C79.156 64.6739 77.0804 67.7847 77.0804 71.2338C77.0856 75.9435 80.8984 79.7564 85.6082 79.7615ZM85.6082 66.6417C87.4634 66.6417 89.1392 67.7589 89.8516 69.4759C90.5589 71.1927 90.1694 73.1658 88.8574 74.4829C87.5403 75.7949 85.5672 76.1844 83.8504 75.4771C82.1335 74.7648 81.0162 73.0889 81.0162 71.2337C81.0213 68.6968 83.0713 66.6468 85.6082 66.6417Z" fill="#155DFC" stroke="#155DFC" stroke-width="1.5"/>
<path d="M59.37 79.7615C62.819 79.7615 65.9298 77.6859 67.2469 74.4982C68.5691 71.3105 67.8414 67.6411 65.402 65.2017C62.9626 62.7623 59.2932 62.0344 56.1055 63.3568C52.9178 64.6739 50.8422 67.7847 50.8422 71.2338C50.8473 75.9435 54.6602 79.7564 59.37 79.7615ZM59.37 66.6417C61.2252 66.6417 62.901 67.7589 63.6134 69.4759C64.3206 71.1927 63.9312 73.1658 62.6192 74.4829C61.3021 75.7949 59.329 76.1844 57.6121 75.4771C55.8953 74.7648 54.778 73.0889 54.778 71.2337C54.7831 68.6968 56.8331 66.6468 59.37 66.6417Z" fill="#155DFC" stroke="#155DFC" stroke-width="1.5"/>
<path d="M31.153 83.0404C31.1581 87.0225 34.3867 90.2511 38.3689 90.2563H39.0248V90.9123C39.0351 99.2403 45.7846 105.99 54.1126 106H90.848C99.176 105.99 105.925 99.2403 105.936 90.9123V90.2563H106.592C110.574 90.2511 113.802 87.0225 113.808 83.0404V72.5446C113.802 68.5625 110.574 65.3338 106.592 65.3287H105.936V64.6727C105.925 56.3447 99.176 49.5954 90.848 49.585H74.4483V45.3415C77.9127 44.3575 80.1215 40.9751 79.6295 37.4081C79.1324 33.836 76.0831 31.1813 72.4803 31.1813C68.8775 31.1813 65.8282 33.836 65.3311 37.4081C64.8391 40.9751 67.0479 44.3575 70.5123 45.3415V49.585H54.1126C45.7846 49.5952 39.0353 56.3447 39.0248 64.6727V65.3287H38.3689C34.3867 65.3338 31.1581 68.5625 31.153 72.5446V83.0404ZM105.936 69.2646H106.592C108.401 69.2646 109.872 70.7355 109.872 72.5446V83.0404C109.872 84.8495 108.401 86.3203 106.592 86.3203H105.936V69.2646ZM69.2003 38.4331C69.2003 37.1058 69.9998 35.9116 71.2247 35.4043C72.4496 34.8969 73.864 35.1737 74.802 36.1115C75.7398 37.0494 76.0166 38.4639 75.5092 39.6888C75.0018 40.9136 73.8077 41.7132 72.4804 41.7132C70.6713 41.7132 69.2003 40.2422 69.2003 38.4331ZM42.9608 64.6727C42.9659 58.5177 47.9576 53.526 54.1126 53.5209H90.848C97.003 53.526 101.995 58.5177 102 64.6727V90.9123C101.995 97.0673 97.003 102.059 90.848 102.064H54.1126C47.9576 102.059 42.9659 97.0673 42.9608 90.9123V64.6727ZM35.0889 72.5446C35.0889 70.7355 36.5598 69.2646 38.3689 69.2646H39.0248V86.3203H38.3689C36.5598 86.3203 35.0889 84.8495 35.0889 83.0404V72.5446Z" fill="#155DFC" stroke="#155DFC" stroke-width="1.5"/>
<path d="M85.5987 88.9435H59.3591C58.2727 88.9435 57.3912 89.825 57.3912 90.9115C57.3912 91.9979 58.2727 92.8794 59.3591 92.8794H85.5987C86.6852 92.8794 87.5667 91.9979 87.5667 90.9115C87.5667 89.825 86.6852 88.9435 85.5987 88.9435Z" fill="#155DFC" stroke="#155DFC" stroke-width="1.5"/>
</svg>
