<svg width="144" height="144" viewBox="0 0 144 144" fill="none" xmlns="http://www.w3.org/2000/svg">
<rect width="144" height="144" rx="10" fill="#C4FBF1"/>
<path d="M108.951 105.02C109.098 104.261 108.913 103.511 108.437 102.927C107.976 102.353 107.282 102.017 106.565 102.017H104.131V53.1627C104.131 52.0046 103.765 50.8465 103.085 49.8976C102.415 48.9634 101.441 48.2529 100.362 47.9025L63.5307 36.1172C63.2883 36.0442 63.0459 36.0053 62.7892 36.0053C62.5231 35.981 62.2664 36.0442 62.0097 36.1172L44.6332 41.6741C43.5258 42.0245 42.5895 42.7203 41.9098 43.6692C41.2301 44.6181 40.8641 45.7519 40.8641 46.9343V102.017H38.578C37.347 102.017 36.2681 102.864 36.0494 103.998C35.9021 104.757 36.0874 105.506 36.5627 106.09C37.0238 106.664 37.7177 107 38.4354 107H106.427C107.658 107 108.736 106.153 108.955 105.02H108.951ZM60.3278 102.017H45.7267V87.8912L60.3278 85.0884V102.017ZM60.3278 80.0184L45.7267 82.8212V67.8344L60.3278 64.0973V80.0184ZM60.3278 58.9688L45.7267 62.7059V46.5506L60.3278 41.8792V58.9688ZM79.7959 102.018H65.1948V84.9152L79.7959 86.847V102.018ZM79.7959 81.8247L65.1948 79.8929V64.0253L79.7959 67.4022V81.8247ZM79.7959 62.2923L65.1948 58.9154V41.8744L79.7959 46.5457V62.2923ZM99.264 102.018H84.6629V87.4938L99.264 89.4256V102.018ZM99.264 84.4032L84.6629 82.4714V68.5309L99.264 71.9079V84.4032ZM99.264 66.8029L84.6629 63.426V48.1028L99.264 52.7741V66.8029Z" fill="#009689" stroke="#009689" stroke-width="2"/>
</svg>
