<svg width="25" height="25" viewBox="0 0 25 25" fill="none" xmlns="http://www.w3.org/2000/svg">
<path d="M3.53486 17.468C3.78107 17.8976 3.63278 18.4447 3.20331 18.691C3.06342 18.7721 2.90954 18.8099 2.75845 18.8099C2.44789 18.8099 2.14574 18.6476 1.98065 18.3594C1.67009 17.8165 1.40009 17.2455 1.17906 16.6621C1.0028 16.2003 1.23642 15.6826 1.69805 15.5077C2.15971 15.3328 2.6773 15.565 2.85217 16.0268C3.03963 16.5221 3.26907 17.0063 3.53343 17.468L3.53486 17.468ZM1.40431 14.191C1.89673 14.1518 2.26463 13.7194 2.22409 13.2269C2.20171 12.9568 2.19052 12.6798 2.19052 12.4041C2.19052 11.9088 1.79042 11.5086 1.29521 11.5086C0.799997 11.5086 0.399902 11.9088 0.399902 12.4041C0.399902 12.7288 0.412493 13.0534 0.439074 13.371C0.476845 13.8398 0.868535 14.1952 1.33019 14.1952C1.35397 14.1952 1.37915 14.1938 1.40293 14.1924L1.40431 14.191ZM12.3983 0.402805C9.27314 0.402805 6.35214 1.58658 4.1393 3.69944L4.20645 2.96622C4.25121 2.47368 3.88889 2.03853 3.39648 1.99232C2.90406 1.94895 2.46901 2.30995 2.42425 2.80248L2.11369 6.21664C2.08851 6.4909 2.19063 6.75954 2.39067 6.94846C2.55854 7.10658 2.77956 7.19333 3.00621 7.19333C3.04958 7.19333 3.09295 7.19053 3.13771 7.18354L6.52871 6.68122C7.01833 6.60846 7.35547 6.15369 7.28274 5.66398C7.21 5.17427 6.75673 4.83842 6.26574 4.90837L5.32148 5.0483C7.2114 3.21806 9.71672 2.19101 12.4016 2.19101C18.0295 2.19101 22.6081 6.77071 22.6081 12.4C22.6081 18.0292 18.0295 22.6089 12.4016 22.6089C10.036 22.6089 7.73057 21.7806 5.91059 20.2778L5.90919 20.2764C5.69795 20.1015 5.4923 19.9168 5.29648 19.7279C4.94255 19.3837 4.37599 19.3921 4.03044 19.7475C3.68631 20.1029 3.6947 20.6696 4.05003 21.0138C4.27805 21.2349 4.52006 21.4518 4.76906 21.6575L4.77046 21.6589C6.91082 23.4261 9.62196 24.4 12.4028 24.4C19.0184 24.4 24.3999 19.0172 24.3999 12.4C24.3999 5.7828 19.0184 0.399994 12.4028 0.399994L12.3983 0.402805ZM12.3983 4.52221C11.9031 4.52221 11.503 4.9224 11.503 5.41773V12.4028C11.503 12.8981 11.9031 13.2983 12.3983 13.2983H16.8272C17.3224 13.2983 17.7225 12.8981 17.7225 12.4028C17.7225 11.9075 17.3224 11.5073 16.8272 11.5073H13.2936V5.41773C13.2936 4.9224 12.8935 4.52221 12.3983 4.52221Z" fill="#333D4B" stroke="#333D4B" stroke-width="0.8"/>
</svg>
