<svg width="16" height="16" viewBox="0 0 16 16" fill="none" xmlns="http://www.w3.org/2000/svg">
<path d="M0 13.2339V2.3354C0 1.71601 0.246228 1.12217 0.684202 0.684199C1.12218 0.246227 1.71602 0 2.33541 0H5.44929C5.87922 0 6.22775 0.348531 6.22775 0.778466C6.22775 1.2084 5.87922 1.55693 5.44929 1.55693H2.33541C2.12894 1.55693 1.931 1.63901 1.78501 1.785C1.63901 1.93099 1.55694 2.12894 1.55694 2.3354V13.2339C1.55694 13.4404 1.63901 13.6383 1.78501 13.7843C1.931 13.9303 2.12895 14.0124 2.33541 14.0124H5.44929C5.87922 14.0124 6.22775 14.3609 6.22775 14.7909C6.22775 15.2208 5.87922 15.5693 5.44929 15.5693H2.33541C1.71602 15.5693 1.12218 15.3231 0.684202 14.8851C0.246228 14.4472 0 13.8533 0 13.2339ZM10.3482 3.34193C10.6522 3.03792 11.145 3.03792 11.449 3.34193L15.3413 7.23426C15.6453 7.53827 15.6453 8.03105 15.3413 8.33506L11.449 12.2274C11.145 12.5314 10.6522 12.5314 10.3482 12.2274C10.0442 11.9234 10.0442 11.4306 10.3482 11.1266L12.9116 8.56313H5.44929C5.01935 8.56313 4.67082 8.2146 4.67082 7.78466C4.67082 7.35473 5.01935 7.0062 5.44929 7.0062H12.9116L10.3482 4.44273C10.0442 4.13872 10.0442 3.64594 10.3482 3.34193Z" fill="#333D4B"/>
</svg>
