<svg width="23" height="23" viewBox="0 0 23 23" fill="none" xmlns="http://www.w3.org/2000/svg">
<path d="M11.2858 7.92405C11.4312 7.92405 11.5706 7.86629 11.6734 7.76348C11.7763 7.66068 11.834 7.52124 11.834 7.37584C11.834 7.23045 11.7763 7.09101 11.6734 6.9882C11.5706 6.88539 11.4312 6.82764 11.2858 6.82764C10.4184 6.82764 9.57048 7.08485 8.84927 7.56675C8.12805 8.04866 7.56593 8.7336 7.23399 9.53497C6.90205 10.3363 6.8152 11.2182 6.98442 12.0689C7.15364 12.9196 7.57133 13.7011 8.18468 14.3144C8.79802 14.9278 9.57947 15.3455 10.4302 15.5147C11.2809 15.6839 12.1627 15.5971 12.9641 15.2651C13.7655 14.9332 14.4504 14.371 14.9323 13.6498C15.4142 12.9286 15.6715 12.0807 15.6715 11.2133C15.6715 11.0679 15.6137 10.9285 15.5109 10.8257C15.4081 10.7228 15.2686 10.6651 15.1233 10.6651C14.9779 10.6651 14.8384 10.7228 14.7356 10.8257C14.6328 10.9285 14.575 11.0679 14.575 11.2133C14.575 11.8638 14.3821 12.4998 14.0207 13.0407C13.6593 13.5816 13.1456 14.0032 12.5445 14.2522C11.9435 14.5011 11.2822 14.5662 10.6441 14.4393C10.0061 14.3124 9.41997 13.9991 8.95996 13.5391C8.49995 13.0791 8.18668 12.493 8.05976 11.855C7.93285 11.2169 7.99799 10.5556 8.24694 9.95455C8.4959 9.35352 8.91749 8.83981 9.4584 8.47839C9.99931 8.11696 10.6353 7.92405 11.2858 7.92405Z" fill="#333D4B" stroke="#333D4B" stroke-width="0.5"/>
<path d="M21.7457 7.95737C21.7007 7.82031 21.6037 7.70645 21.4754 7.64043C21.3472 7.57441 21.1981 7.56154 21.0605 7.60461C20.9228 7.64768 20.8077 7.74323 20.7399 7.87057C20.6722 7.99791 20.6573 8.1468 20.6986 8.28501C21.3621 10.3996 21.2973 12.6757 20.5145 14.7491C19.7316 16.8225 18.276 18.5735 16.3805 19.7219C14.4849 20.8703 12.259 21.3498 10.0588 21.0837C7.85854 20.8175 5.81112 19.8212 4.24404 18.254C2.67695 16.6868 1.68076 14.6393 1.41481 12.439C1.14887 10.2388 1.62853 8.01289 2.77709 6.11745C3.92564 4.222 5.6767 2.76653 7.75018 1.98385C9.82365 1.20117 12.0997 1.13651 14.2143 1.80021C14.2834 1.82339 14.3565 1.83254 14.4292 1.82713C14.5019 1.82172 14.5728 1.80187 14.6377 1.76872C14.7027 1.73558 14.7603 1.68981 14.8074 1.6341C14.8544 1.57839 14.8899 1.51386 14.9117 1.44428C14.9335 1.37471 14.9411 1.30148 14.9343 1.22889C14.9274 1.15631 14.9062 1.08581 14.8717 1.02155C14.8373 0.957278 14.7904 0.900524 14.7338 0.854606C14.6771 0.808687 14.6119 0.774528 14.5419 0.754126C12.1935 0.0175814 9.66595 0.0898835 7.3635 0.959468C5.06106 1.82905 3.11675 3.44568 1.84158 5.55076C0.566405 7.65585 0.0340431 10.1278 0.329642 12.5711C0.625242 15.0145 1.73172 17.2882 3.47211 19.0284C5.21249 20.7687 7.48622 21.875 9.92961 22.1704C12.373 22.4659 14.8449 21.9334 16.9499 20.658C19.0549 19.3827 20.6714 17.4383 21.5408 15.1358C22.4102 12.8333 22.4824 10.3057 21.7457 7.95737Z" fill="#333D4B" stroke="#333D4B" stroke-width="0.5"/>
<path d="M12.3297 4.16267C12.331 4.01227 12.2751 3.867 12.1733 3.75628C12.0715 3.64555 11.9315 3.57764 11.7815 3.5663C11.6177 3.55183 11.4538 3.53845 11.2857 3.53845C9.76779 3.53845 8.28393 3.98858 7.0218 4.83191C5.75967 5.67523 4.77595 6.87389 4.19506 8.27629C3.61417 9.6787 3.46218 11.2219 3.75831 12.7106C4.05445 14.1994 4.78542 15.567 5.85877 16.6403C6.93212 17.7137 8.29966 18.4446 9.78844 18.7408C11.2772 19.0369 12.8204 18.8849 14.2228 18.304C15.6252 17.7231 16.8239 16.7394 17.6672 15.4773C18.5105 14.2152 18.9606 12.7313 18.9606 11.2133C18.9606 11.0151 18.9485 10.817 18.9242 10.6202C18.9174 10.5439 18.8948 10.4699 18.8579 10.4029C18.821 10.3359 18.7705 10.2772 18.7097 10.2307C18.6489 10.1842 18.5791 10.1509 18.5047 10.1328C18.4304 10.1147 18.353 10.1122 18.2777 10.1256C18.2023 10.139 18.1306 10.1679 18.067 10.2104C18.0033 10.253 17.9493 10.3083 17.9082 10.3729C17.8671 10.4375 17.8399 10.5099 17.8283 10.5855C17.8166 10.6612 17.8209 10.7384 17.8407 10.8124C17.8524 10.9451 17.8642 11.0774 17.8642 11.2133C17.8642 12.5145 17.4784 13.7863 16.7555 14.8682C16.0327 15.95 15.0053 16.7932 13.8032 17.2911C12.6012 17.789 11.2784 17.9193 10.0023 17.6654C8.72624 17.4116 7.55407 16.7851 6.63405 15.865C5.71403 14.945 5.08749 13.7728 4.83366 12.4967C4.57983 11.2206 4.7101 9.89793 5.20801 8.69587C5.70592 7.49381 6.54911 6.46639 7.63093 5.74354C8.71276 5.02069 9.98464 4.63487 11.2857 4.63487C11.4217 4.63487 11.5534 4.64717 11.6862 4.65841L11.789 4.66751C11.8578 4.67051 11.9265 4.65976 11.9911 4.6359C12.0557 4.61204 12.1149 4.57554 12.1653 4.52854C12.2156 4.48154 12.2561 4.42498 12.2843 4.36216C12.3125 4.29934 12.328 4.23152 12.3297 4.16267Z" fill="#333D4B" stroke="#333D4B" stroke-width="0.5"/>
<path d="M14.575 5.18309V7.14893L10.8982 10.8258C10.8462 10.8764 10.8048 10.9369 10.7764 11.0037C10.748 11.0705 10.7331 11.1422 10.7327 11.2148C10.7322 11.2874 10.7462 11.3593 10.7737 11.4265C10.8013 11.4936 10.8419 11.5546 10.8932 11.6059C10.9446 11.6572 11.0055 11.6979 11.0727 11.7254C11.1398 11.753 11.2118 11.7669 11.2843 11.7665C11.3569 11.766 11.4287 11.7511 11.4955 11.7227C11.5623 11.6943 11.6227 11.6529 11.6734 11.601L15.3502 7.92413H17.3161C17.3881 7.92414 17.4593 7.90996 17.5259 7.88241C17.5924 7.85485 17.6528 7.81445 17.7037 7.76353L20.9929 4.47429C21.0696 4.39762 21.1218 4.29994 21.1429 4.19361C21.1641 4.08728 21.1532 3.97706 21.1117 3.87689C21.0702 3.77673 21 3.69112 20.9098 3.63088C20.8197 3.57064 20.7137 3.53848 20.6053 3.53847H18.9607V1.89385C18.9607 1.78543 18.9285 1.67945 18.8683 1.58931C18.808 1.49917 18.7224 1.42892 18.6223 1.38743C18.5221 1.34594 18.4119 1.33509 18.3055 1.35623C18.1992 1.37738 18.1015 1.42958 18.0249 1.50624L14.7356 4.79548C14.6847 4.84637 14.6443 4.90679 14.6168 4.9733C14.5892 5.03981 14.575 5.1111 14.575 5.18309ZM15.6714 5.41008L17.8643 3.21725V4.08668C17.8642 4.15868 17.8784 4.22999 17.9059 4.29652C17.9334 4.36305 17.9738 4.4235 18.0247 4.47441C18.0757 4.52533 18.1361 4.56571 18.2026 4.59324C18.2692 4.62078 18.3405 4.63493 18.4125 4.63488H19.2819L17.0891 6.82771H15.6714V5.41008Z" fill="#333D4B" stroke="#333D4B" stroke-width="0.5"/>
</svg>
