<svg width="69" height="53" viewBox="0 0 69 53" fill="none" xmlns="http://www.w3.org/2000/svg">
<path d="M37.5674 49.3896H42.2969C43.2599 49.3898 44.0476 50.1776 44.0479 51.1406C44.0479 52.1038 43.26 52.8924 42.2969 52.8926H14.0117C13.0484 52.8926 12.2598 52.1039 12.2598 51.1406C12.26 50.1775 13.0486 49.3896 14.0117 49.3896H18.7402L20.0537 42.2969H36.2539L37.5674 49.3896ZM48.9502 19C51.8399 19 54.4674 20.0501 56.4814 21.7139C59.021 23.8155 60.6846 28.0197 60.6846 30.7344C60.6845 33.4489 59.721 35.901 58.2324 37.915L59.3711 39.0527L60.7725 40.4541C61.8233 40.1914 62.9619 40.4541 63.75 41.2422L67.6904 45.1826L67.8652 45.0957C69.0912 46.3217 69.0912 48.2477 67.8652 49.4736C67.2524 50.0865 66.4647 50.3495 65.6768 50.3496C64.8886 50.3496 64.1003 50.0866 63.4873 49.4736L59.5469 45.5332C58.7587 44.7451 58.4951 43.6065 58.7578 42.5557L56.2188 40.0166C54.2047 41.5928 52.4532 42.4687 49.0381 42.4688C45.6229 42.4688 42.5574 41.0675 40.3682 38.7031C38.4417 36.6016 37.2159 37.2141 37.2158 30.7344C37.2158 24.2543 42.4701 19.0001 48.9502 19ZM51.1406 0C54.0303 0 56.3944 2.36423 56.3945 5.25391H56.4824V18.0391C54.9063 17.1634 53.2425 16.5505 51.4912 16.2002V8.84473C51.4912 6.65548 49.5643 4.9043 47.1123 4.9043H9.28223C6.83027 4.9043 4.90332 6.65548 4.90332 8.84473V29.9492C4.90349 32.1383 6.83037 33.8896 9.28223 33.8896H34.415C34.7653 35.641 35.4655 37.3053 36.4287 38.7939H5.25391C2.36413 38.7939 0 36.4288 0 33.5391V5.25391C0.000159829 2.36425 2.36422 3.65339e-05 5.25391 0H51.1406ZM48.8633 23.7285C44.9227 23.7285 41.7697 26.8808 41.7695 30.8213C41.7695 34.7619 44.9226 37.915 48.8633 37.915C52.8037 37.9148 55.9561 34.7618 55.9561 30.8213C55.9559 26.8809 52.7161 23.7287 48.8633 23.7285ZM47.1113 7.96777C47.8995 7.96777 48.4248 8.4059 48.4248 8.84375V16.0244C40.4562 16.2872 34.0637 22.8546 34.0635 30.8232H9.28125C8.49329 30.8232 7.96799 30.386 7.96777 29.9482V8.84375C7.96777 8.4059 8.58069 7.96777 9.28125 7.96777H47.1113Z" fill="#D5D7D8"/>
</svg>
