<svg width="24" height="22" viewBox="0 0 24 22" fill="none" xmlns="http://www.w3.org/2000/svg">
<path d="M15.4022 13.7676C16.3619 13.7676 17.2275 13.1901 17.594 12.3031C17.9619 11.4161 17.7594 10.395 17.0806 9.71624C16.4019 9.03748 15.3808 8.83494 14.4938 9.20289C13.6068 9.56938 13.0293 10.435 13.0293 11.3947C13.0307 12.7052 14.0917 13.7662 15.4022 13.7676ZM15.4022 10.1169C15.9184 10.1169 16.3847 10.4278 16.5829 10.9056C16.7797 11.3833 16.6714 11.9323 16.3063 12.2988C15.9398 12.6638 15.3908 12.7722 14.9131 12.5754C14.4353 12.3772 14.1245 11.9109 14.1245 11.3947C14.1259 10.6888 14.6963 10.1184 15.4022 10.1169Z" fill="#333D4B" stroke="#333D4B" stroke-width="0.5"/>
<path d="M8.1014 13.7676C9.06112 13.7676 9.92672 13.1901 10.2932 12.3031C10.6611 11.4161 10.4586 10.395 9.77986 9.71624C9.10108 9.03748 8.08004 8.83494 7.19305 9.20289C6.30605 9.56938 5.72852 10.435 5.72852 11.3947C5.72994 12.7052 6.79089 13.7662 8.1014 13.7676ZM8.1014 10.1169C8.61764 10.1169 9.08394 10.4278 9.28217 10.9056C9.47896 11.3833 9.37058 11.9323 9.00552 12.2988C8.63903 12.6638 8.09001 12.7722 7.61228 12.5754C7.13456 12.3772 6.82367 11.9109 6.82367 11.3947C6.8251 10.6888 7.39551 10.1184 8.1014 10.1169Z" fill="#333D4B" stroke="#333D4B" stroke-width="0.5"/>
<path d="M0.25 14.6801C0.251426 15.7881 1.14981 16.6865 2.25786 16.6879H2.44039V16.8704C2.44324 19.1878 4.32131 21.0658 6.63863 21.0687H16.8604C19.1778 21.0658 21.0558 19.1878 21.0587 16.8704V16.6879H21.2412C22.3493 16.6865 23.2477 15.7881 23.2491 14.6801V11.7595C23.2476 10.6515 22.3493 9.75311 21.2412 9.75168H21.0587V9.56915C21.0558 7.25183 19.1778 5.37383 16.8604 5.37091H12.2971V4.19014C13.2611 3.91634 13.8757 2.97517 13.7388 1.98263C13.6005 0.988672 12.752 0.25 11.7495 0.25C10.747 0.25 9.89855 0.988672 9.76023 1.98263C9.62333 2.97517 10.238 3.91634 11.2019 4.19014V5.37091H6.63863C4.32131 5.37376 2.44331 7.25183 2.44039 9.56915V9.75168H2.25786C1.14981 9.75311 0.251424 10.6515 0.25 11.7595V14.6801ZM21.0587 10.8469H21.2412C21.7446 10.8469 22.1539 11.2562 22.1539 11.7595V14.6801C22.1539 15.1834 21.7446 15.5927 21.2412 15.5927H21.0587V10.8469ZM10.8369 2.26786C10.8369 1.89852 11.0593 1.56624 11.4002 1.42507C11.741 1.28389 12.1346 1.3609 12.3956 1.62186C12.6565 1.88282 12.7335 2.27642 12.5923 2.61725C12.4512 2.95807 12.1189 3.18054 11.7496 3.18054C11.2462 3.18054 10.8369 2.77125 10.8369 2.26786ZM3.53558 9.56915C3.53701 7.85649 4.92597 6.46753 6.63863 6.4661H16.8604C18.5731 6.46753 19.9621 7.85649 19.9635 9.56915V16.8704C19.9621 18.5831 18.5731 19.9721 16.8604 19.9735H6.63863C4.92597 19.9721 3.53701 18.5831 3.53558 16.8704V9.56915ZM1.34519 11.7595C1.34519 11.2562 1.75447 10.8469 2.25786 10.8469H2.44039V15.5927H2.25786C1.75447 15.5927 1.34519 15.1834 1.34519 14.6801V11.7595Z" fill="#333D4B" stroke="#333D4B" stroke-width="0.5"/>
<path d="M15.3997 16.3231H8.09838C7.79606 16.3231 7.55078 16.5684 7.55078 16.8707C7.55078 17.173 7.79606 17.4183 8.09838 17.4183H15.3997C15.702 17.4183 15.9473 17.173 15.9473 16.8707C15.9473 16.5684 15.702 16.3231 15.3997 16.3231Z" fill="#333D4B" stroke="#333D4B" stroke-width="0.5"/>
</svg>
