<svg width="24" height="25" viewBox="0 0 24 25" fill="none" xmlns="http://www.w3.org/2000/svg">
<path d="M22.1807 13.5095C21.9189 13.2423 21.7735 12.886 21.7735 12.5C21.7735 12.114 21.9189 11.7577 22.1807 11.4905L23.5769 10.1247C24.0133 9.67934 24.1296 8.96675 23.8096 8.4323L21.3372 4.0677C21.0172 3.50356 20.3773 3.23634 19.7955 3.41449L17.9339 3.94893C17.5849 4.0677 17.2067 4.00831 16.8868 3.83017C16.5668 3.65202 16.3341 3.32542 16.2468 2.96912L15.7814 1.03919C15.636 0.415677 15.0833 0 14.4725 0H9.52754C8.88761 0 8.36403 0.445368 8.21859 1.03919L7.75318 2.96912C7.66592 3.32542 7.43322 3.65202 7.11325 3.83017C6.79328 4.00831 6.41514 4.0677 6.06609 3.94893L4.20447 3.41449C3.59363 3.23634 2.95369 3.50356 2.66282 4.0677L0.190353 8.4323C-0.129613 8.99644 -0.0423494 9.67934 0.423055 10.1247L1.81927 11.4905C2.08106 11.7577 2.2265 12.114 2.2265 12.5C2.2265 12.886 2.08106 13.2423 1.81927 13.5095L0.423055 14.8753C-0.0132616 15.3207 -0.129613 16.0333 0.190353 16.5677L2.66282 20.9323C2.98278 21.4964 3.62271 21.7637 4.20447 21.5855L6.06609 21.0511C6.41514 20.9323 6.79328 20.9917 7.11325 21.1698C7.43322 21.348 7.66592 21.6746 7.75318 22.0309L8.21859 23.9608C8.36403 24.5843 8.91669 25 9.52754 25H14.4725C15.1124 25 15.636 24.5546 15.7814 23.9608L16.2468 22.0309C16.3341 21.6746 16.5668 21.348 16.8868 21.1698C17.2067 20.9917 17.5849 20.9323 17.9339 21.0511L19.7955 21.5855C20.4064 21.7637 21.0463 21.4964 21.3372 20.9323L23.8096 16.5677C24.1296 16.0036 24.0423 15.3207 23.5769 14.8753L22.1807 13.5095ZM16.0432 12.5C16.0432 14.8159 14.2107 16.6865 11.9418 16.6865C9.67298 16.6865 7.84044 14.8159 7.84044 12.5C7.84044 10.1841 9.67298 8.31354 11.9418 8.31354C14.2107 8.31354 16.0432 10.1841 16.0432 12.5Z" fill="#333D4B"/>
</svg>
