<svg width="24" height="25" viewBox="0 0 24 25" fill="none" xmlns="http://www.w3.org/2000/svg">
<path d="M21.3321 13.4287C21.0921 13.1829 20.9588 12.8551 20.9588 12.5C20.9588 12.1449 21.0921 11.8171 21.3321 11.5713L22.612 10.3147C23.0119 9.90499 23.1186 9.24941 22.8253 8.75772L20.5588 4.74228C20.2655 4.22328 19.6789 3.97743 19.1457 4.14133L17.4392 4.63302C17.1192 4.74228 16.7726 4.68765 16.4793 4.52375C16.186 4.35986 15.9727 4.05938 15.8927 3.73159L15.4661 1.95606C15.3327 1.38242 14.8261 1 14.2662 1H9.73333C9.14673 1 8.66678 1.40974 8.53346 1.95606L8.10684 3.73159C8.02685 4.05938 7.81354 4.35986 7.52023 4.52375C7.22693 4.68765 6.8803 4.74228 6.56034 4.63302L4.85385 4.14133C4.29391 3.97743 3.70731 4.22328 3.44067 4.74228L1.17425 8.75772C0.880944 9.27672 0.960936 9.90499 1.38756 10.3147L2.66742 11.5713C2.90739 11.8171 3.04071 12.1449 3.04071 12.5C3.04071 12.8551 2.90739 13.1829 2.66742 13.4287L1.38756 14.6853C0.987599 15.095 0.880944 15.7506 1.17425 16.2423L3.44067 20.2577C3.73397 20.7767 4.32058 21.0226 4.85385 20.8587L6.56034 20.367C6.8803 20.2577 7.22693 20.3124 7.52023 20.4762C7.81354 20.6401 8.02685 20.9406 8.10684 21.2684L8.53346 23.0439C8.66678 23.6176 9.17339 24 9.73333 24H14.2662C14.8528 24 15.3327 23.5903 15.4661 23.0439L15.8927 21.2684C15.9727 20.9406 16.186 20.6401 16.4793 20.4762C16.7726 20.3124 17.1192 20.2577 17.4392 20.367L19.1457 20.8587C19.7056 21.0226 20.2922 20.7767 20.5588 20.2577L22.8253 16.2423C23.1186 15.7233 23.0386 15.095 22.612 14.6853L21.3321 13.4287ZM15.706 12.5C15.706 14.6306 14.0262 16.3515 11.9464 16.3515C9.86665 16.3515 8.18683 14.6306 8.18683 12.5C8.18683 10.3694 9.86665 8.64846 11.9464 8.64846C14.0262 8.64846 15.706 10.3694 15.706 12.5Z" stroke="#333D4B" stroke-width="2"/>
</svg>
