<svg width="23" height="23" viewBox="0 0 23 23" fill="none" xmlns="http://www.w3.org/2000/svg">
<path fill-rule="evenodd" clip-rule="evenodd" d="M11.5004 0.498247C8.45844 -0.342304 5.65028 0.541697 3.55035 3.8125C2.76268 5.04036 1.75918 6.18657 1.07644 7.34851C0.277536 8.70747 -0.100932 10.0919 0.484382 11.6044C0.909315 12.7012 1.66775 13.7156 2.49438 14.7434C3.24457 15.6768 4.05172 16.626 4.65202 17.6943C6.32852 20.6782 8.66303 22.1166 11.2786 22.1967C13.8844 22.2761 16.7577 20.8805 18.8974 18.7888C21.058 16.677 22.4475 13.8714 22.1635 11.2531C21.9559 9.33826 20.9906 7.42717 19.5674 5.74307C17.49 3.2851 14.439 1.31033 11.5004 0.498247ZM11.1017 1.94261C13.7697 2.67978 16.5359 4.4785 18.4223 6.71023C19.6416 8.15235 20.496 9.77502 20.6736 11.4149C20.9119 13.6167 19.6663 15.9413 17.8489 17.7183C16.0106 19.5155 13.5644 20.7673 11.3236 20.6984C9.18914 20.634 7.32753 19.3964 5.95905 16.9601C5.31828 15.8199 4.46391 14.8018 3.66276 13.8055C2.9373 12.9035 2.25456 12.0255 1.88284 11.0636C1.47439 10.0088 1.81164 9.05508 2.36848 8.1074C3.04222 6.96119 4.03449 5.83297 4.81241 4.62159C6.47841 2.02502 8.68702 1.27512 11.1017 1.94261ZM11.4614 4.40508C9.48742 3.8597 7.66028 4.42306 6.2978 6.54616C5.81591 7.29682 5.20286 7.99802 4.78617 8.70822C4.25182 9.61619 4.0135 10.5429 4.40471 11.5535C4.67376 12.2472 5.14965 12.8915 5.67276 13.5418C6.11943 14.0976 6.60207 14.6617 6.95955 15.2978C8.04025 17.2209 9.55337 18.1363 11.2396 18.1873C12.8974 18.2382 14.7298 17.3609 16.0907 16.0304C17.4735 14.679 18.3473 12.8773 18.1652 11.2022C18.0333 9.98253 17.424 8.76366 16.5172 7.69087C15.2154 6.15061 13.3036 4.91376 11.4614 4.40508ZM11.0627 5.84945C12.6336 6.28321 14.2621 7.34326 15.3728 8.65728C16.0743 9.48809 16.5726 10.4193 16.6753 11.364C16.8117 12.6225 16.0818 13.9433 15.043 14.9592C13.9826 15.996 12.5766 16.7294 11.2853 16.6897C10.0795 16.653 9.03925 15.9391 8.26658 14.5636C7.86863 13.8557 7.33877 13.2226 6.84114 12.6031C6.41996 12.0794 6.01901 11.5715 5.80317 11.0126C5.58883 10.4597 5.78668 9.9638 6.07821 9.46711C6.48591 8.7734 7.08846 8.08942 7.55911 7.35525C8.48916 5.90714 9.716 5.47712 11.0627 5.84945ZM11.4292 7.68937C10.3523 7.39196 9.35027 7.68712 8.60758 8.84457C8.32504 9.28507 7.95706 9.6956 7.76595 10.1159C7.5636 10.5616 7.51039 11.0186 7.70075 11.5101C7.81467 11.8045 7.99603 12.0839 8.20887 12.3588C8.4367 12.6533 8.70875 12.9447 8.89911 13.2833C9.47918 14.3149 10.3021 14.7898 11.2066 14.8176C12.067 14.8438 13.0248 14.4018 13.7315 13.7111C14.4592 12.9986 14.8999 12.0412 14.804 11.1595C14.6413 9.6559 13.0098 8.12613 11.4292 7.68937ZM11.0298 9.13374C11.6788 9.31279 12.3503 9.75179 12.8089 10.2949C13.0757 10.6111 13.2751 10.9609 13.3141 11.3205C13.3643 11.7865 13.0682 12.2637 12.683 12.6398C12.2768 13.0368 11.747 13.335 11.2524 13.32C10.8282 13.3065 10.4782 13.0331 10.2061 12.5491C10.012 12.2045 9.75647 11.8944 9.51365 11.5932C9.34727 11.3864 9.1839 11.1902 9.09846 10.9692C9.02501 10.7789 9.1764 10.6305 9.29331 10.4597C9.47243 10.1968 9.68977 9.93234 9.86888 9.65365C10.1792 9.17045 10.5801 9.00938 11.0298 9.13374Z" fill="#333D4B" stroke="#333D4B" stroke-width="0.4"/>
</svg>
