<svg width="24" height="18" viewBox="0 0 24 18" fill="none" xmlns="http://www.w3.org/2000/svg">
<path d="M13.1074 16.8076H14.7578C15.0938 16.8078 15.3682 17.0766 15.3682 17.4043C15.368 17.7319 15.0937 17.9999 14.7578 18H4.88867C4.5527 18 4.27755 17.7319 4.27734 17.4043C4.27734 17.0765 4.55258 16.8076 4.88867 16.8076H6.53809L6.99707 14.3936H12.6494L13.1074 16.8076ZM17.0801 6.46582C18.0881 6.4659 19.0044 6.82359 19.707 7.38965C20.593 8.10483 21.1737 9.53514 21.1738 10.459C21.1738 11.3828 20.8378 12.2179 20.3184 12.9033L20.7158 13.29L21.1133 13.6777L21.2041 13.7676C21.5707 13.6782 21.9682 13.7671 22.2432 14.0352L23.6182 15.376L23.6797 15.3467C24.1072 15.7639 24.1074 16.4198 23.6797 16.8369C23.4659 17.0454 23.1908 17.1347 22.916 17.1348C22.641 17.1348 22.3652 17.0455 22.1514 16.8369L20.7764 15.4951C20.5017 15.2269 20.4104 14.8398 20.502 14.4824L20.4102 14.3926L20.0127 14.0059L19.6162 13.6182C18.9135 14.1546 18.3019 14.4521 17.1104 14.4521C15.9187 14.4521 14.8488 13.9755 14.085 13.1709C13.413 12.4561 12.9854 12.6639 12.9854 10.459C12.9855 8.25379 14.8191 6.46582 17.0801 6.46582ZM17.8438 0C18.8519 0.000103538 19.6767 0.804777 19.6768 1.78809H19.707V6.13965C19.1571 5.84167 18.5768 5.63288 17.9658 5.51367V3.00977C17.9656 2.265 17.2937 1.66914 16.4385 1.66895H3.23828C2.3831 1.66915 1.71113 2.26501 1.71094 3.00977V10.1924C1.71107 10.9372 2.38307 11.533 3.23828 11.5332H12.0078C12.13 12.1292 12.3748 12.6955 12.7109 13.2021H1.83301C0.824852 13.202 3.40124e-05 12.3974 0 11.4141V1.78809C8.11358e-05 0.80479 0.824881 0.00012453 1.83301 0H17.8438ZM17.0488 8.0752C15.6741 8.07538 14.5742 9.14832 14.5742 10.4893C14.5744 11.8301 15.6742 12.9031 17.0488 12.9033C18.4237 12.9033 19.5243 11.8302 19.5244 10.4893C19.5244 9.14821 18.3932 8.0752 17.0488 8.0752ZM16.4375 2.71094C16.7125 2.71094 16.8965 2.86076 16.8965 3.00977V5.45312C14.1161 5.54253 11.8858 7.77742 11.8857 10.4893H3.23828C2.96342 10.4892 2.78028 10.3404 2.78027 10.1914V3.00977C2.78027 2.8608 2.99393 2.71102 3.23828 2.71094H16.4375Z" fill="#333D4B"/>
</svg>
