<svg width="22" height="18" viewBox="0 0 22 18" fill="none" xmlns="http://www.w3.org/2000/svg">
<path d="M16.4279 1.85294C17.1551 1.85294 17.7704 2.43529 17.7704 3.12353C17.7704 3.81176 17.1551 4.39412 16.4279 4.39412C15.7007 4.39412 15.0853 3.81176 15.0853 3.12353C15.0853 2.43529 15.7007 1.85294 16.4279 1.85294ZM7.14192 1.87941C8.40056 1.87941 9.40747 2.83235 9.40747 4.02353C9.40747 5.21471 8.40056 6.16765 7.14192 6.16765C5.88327 6.16765 4.87636 5.21471 4.87636 4.02353C4.87636 2.83235 5.88327 1.87941 7.14192 1.87941ZM16.4279 9C17.1551 9 18.9452 9 19.7843 12.1765H16.372C16.0923 11.5412 15.7566 10.9324 15.393 10.3765C15.1972 10.0588 14.9735 9.76765 14.7217 9.45C15.1972 9.13235 15.7566 9 16.4279 9ZM7.14192 11.0382C8.12086 11.0382 11.0017 11.0382 12.1485 16.1471H2.13532C3.28208 11.0382 6.16297 11.0382 7.14192 11.0382ZM16.4279 0C14.6099 0 13.1275 1.40294 13.1275 3.12353C13.1275 4.84412 14.6099 6.24706 16.4279 6.24706C18.2459 6.24706 19.7283 4.84412 19.7283 3.12353C19.7283 1.40294 18.2459 0 16.4279 0ZM7.14192 0.0264707C4.79245 0.0264707 2.91847 1.82647 2.91847 4.02353C2.91847 6.22059 4.82042 8.02059 7.14192 8.02059C9.46341 8.02059 11.3654 6.22059 11.3654 4.02353C11.3654 1.82647 9.46341 0.0264707 7.14192 0.0264707ZM16.4279 7.14706C14.3302 7.14706 12.9596 8.12647 12.0926 9.52941C12.7079 10.0324 13.2673 10.6147 13.7148 11.3294C14.2183 12.0971 14.6658 12.9971 15.0014 14.0294H21.2946C21.7142 14.0294 22.0498 13.6588 21.9939 13.2618C21.5464 10.1912 20.1479 7.14706 16.4279 7.14706ZM7.14192 9.18529C2.41502 9.18529 0.624948 12.9971 0.00961188 16.8618C-0.0742976 17.4441 0.401189 18 1.04449 18H13.2393C13.8826 18 14.3581 17.4706 14.2742 16.8618C13.6589 12.9971 11.8688 9.18529 7.14192 9.18529Z" fill="#333D4B"/>
</svg>
